HIERARCHY
ROOT Hips
{
	OFFSET -0.001795 -0.223333 0.028219
	CHANNELS 6 Xposition Yposition Zposition Zrotation Yrotation Xrotation 
	JOINT LeftUpLeg
	{
		OFFSET 0.069520 -0.091406 -0.006815
		CHANNELS 3 Zrotation Yrotation Xrotation
		JOINT LeftLeg
		{
			OFFSET 0.034277 -0.375199 -0.004496
			CHANNELS 3 Zrotation Yrotation Xrotation
			JOINT LeftFoot
			{
				OFFSET -0.013596 -0.397961 -0.043693
				CHANNELS 3 Zrotation Yrotation Xrotation
				JOINT LeftToe
				{
					OFFSET 0.026358 -0.055791 0.119288
					CHANNELS 3 Zrotation Yrotation Xrotation
					End Site
					{
						OFFSET 0.000000 0.000000 0.000000
					}
				}
			}
		}
	}
	JOINT RightUpLeg
	{
		OFFSET -0.067670 -0.090522 -0.004320
		CHANNELS 3 Zrotation Yrotation Xrotation
		JOINT RightLeg
		{
			OFFSET -0.038290 -0.382569 -0.008850
			CHANNELS 3 Zrotation Yrotation Xrotation
			JOINT RightFoot
			{
				OFFSET 0.015774 -0.398415 -0.042312
				CHANNELS 3 Zrotation Yrotation Xrotation
				JOINT RightToe
				{
					OFFSET -0.025372 -0.048144 0.123348
					CHANNELS 3 Zrotation Yrotation Xrotation
					End Site
					{
						OFFSET 0.000000 0.000000 0.000000
					}
				}
			}
		}
	}
	JOINT Spine
	{
		OFFSET -0.002533 0.108963 -0.026696
		CHANNELS 3 Zrotation Yrotation Xrotation
		JOINT Spine1
		{
			OFFSET 0.005487 0.135180 0.001092
			CHANNELS 3 Zrotation Yrotation Xrotation
			JOINT Spine2
			{
				OFFSET 0.001457 0.052922 0.025425
				CHANNELS 3 Zrotation Yrotation Xrotation
				JOINT Neck
				{
					OFFSET -0.002778 0.213870 -0.042857
					CHANNELS 3 Zrotation Yrotation Xrotation
					JOINT Head
					{
						OFFSET 0.005152 0.064970 0.051349
						CHANNELS 3 Zrotation Yrotation Xrotation
						End Site
						{
							OFFSET 0.000000 0.000000 0.000000
						}
					}
				}
				JOINT LeftShoulder
				{
					OFFSET 0.078845 0.121749 -0.034090
					CHANNELS 3 Zrotation Yrotation Xrotation
					JOINT LeftArm
					{
						OFFSET 0.090977 0.030469 -0.008868
						CHANNELS 3 Zrotation Yrotation Xrotation
						JOINT LeftForeArm
						{
							OFFSET 0.259612 -0.012772 -0.027456
							CHANNELS 3 Zrotation Yrotation Xrotation
							JOINT LeftHand
							{
								OFFSET 0.249234 0.008986 -0.001171
								CHANNELS 3 Zrotation Yrotation Xrotation
								End Site
								{
									OFFSET 0.000000 0.000000 0.000000
								}
							}
						}
					}
				}
				JOINT RightShoulder
				{
					OFFSET -0.081759 0.118833 -0.038615
					CHANNELS 3 Zrotation Yrotation Xrotation
					JOINT RightArm
					{
						OFFSET -0.096012 0.032551 -0.009143
						CHANNELS 3 Zrotation Yrotation Xrotation
						JOINT RightForeArm
						{
							OFFSET -0.253742 -0.013329 -0.021401
							CHANNELS 3 Zrotation Yrotation Xrotation
							JOINT RightHand
							{
								OFFSET -0.255298 0.007772 -0.005559
								CHANNELS 3 Zrotation Yrotation Xrotation
								End Site
								{
									OFFSET 0.000000 0.000000 0.000000
								}
							}
						}
					}
				}
			}
		}
	}
}
MOTION
Frames: 13
Frame Time: 0.050000
0.000000 0.954334 0.000000 -1.840635 1.797558 5.400675 4.537208 -0.290971 -3.158482 3.589826 -0.412909 0.549946 3.133383 10.614542 15.394476 0.000000 0.000000 0.000000 -2.605191 0.488088 -5.152899 -1.620159 0.106930 -1.248858 4.926906 3.518336 14.858010 0.000000 0.000000 0.000000 1.611824 0.037621 -1.499403 0.298752 -0.027576 -3.238229 -0.110874 -0.584651 2.555220 2.527093 -0.513276 -14.022381 0.000000 0.000000 0.000000 -19.455560 -4.351236 0.299704 -52.263345 -7.725602 -2.662925 -12.439264 -23.579127 3.442947 0.000000 0.000000 0.000000 18.071333 2.626779 -0.255587 56.335221 6.835315 -2.048001 9.242585 23.831174 2.569207 0.000000 0.000000 0.000000 
-0.000474 0.952477 0.000221 -1.876995 0.647768 5.862246 4.188660 -0.273761 -2.917791 4.081050 -0.415101 -0.273448 3.810766 11.460154 15.322795 0.000000 0.000000 0.000000 -2.948708 0.530320 -5.663794 -0.989613 0.055121 -1.012151 5.099797 4.399132 13.367435 0.000000 0.000000 0.000000 1.716113 0.052473 -1.819016 -0.650768 0.374157 -3.101839 0.928348 -0.429734 2.000810 2.339943 -0.403142 -14.571922 0.000000 0.000000 0.000000 -19.649948 -3.708673 0.112250 -52.898617 -7.508655 -2.763993 -12.773997 -24.054547 3.619868 0.000000 0.000000 0.000000 16.857545 2.322587 -0.514257 57.791359 6.281785 -2.275279 10.023537 25.347174 2.866394 0.000000 0.000000 0.000000 
-0.000719 0.952035 0.000032 -1.571698 1.360052 5.837934 3.995600 -0.289385 -3.128293 4.027048 -0.414867 -0.136187 3.449552 10.966359 15.077734 0.000000 0.000000 0.000000 -2.919477 0.533016 -5.748405 -1.239408 0.122526 -0.182105 4.147779 3.354879 11.979766 0.000000 0.000000 0.000000 1.516613 0.034727 -1.457933 -0.022173 0.142883 -4.368380 0.106030 -1.183760 2.286758 2.250270 -0.428761 -13.901709 0.000000 0.000000 0.000000 -19.195350 -4.002825 0.353502 -52.954591 -7.144329 -2.962991 -12.526634 -24.449002 3.640899 0.000000 0.000000 0.000000 17.698829 3.092485 -0.210226 56.923930 6.012809 -2.394821 9.253862 26.825236 2.878321 0.000000 0.000000 0.000000 
-0.000840 0.951269 -0.000249 -1.721452 1.319602 6.238419 4.272688 -0.338045 -3.953333 3.839609 -0.440998 0.539347 3.584552 11.106621 14.781234 0.000000 0.000000 0.000000 -2.990316 0.605848 -6.708576 -0.849220 0.110066 0.430326 4.164634 3.257711 12.240609 0.000000 0.000000 0.000000 1.413382 0.045517 -1.667494 -0.543880 0.353056 -3.942808 1.311999 -2.104401 1.342306 1.302955 0.021387 -13.411643 0.000000 0.000000 0.000000 -19.231374 -3.293621 0.255429 -53.185031 -7.078198 -2.962716 -12.337505 -24.723813 3.697362 0.000000 0.000000 0.000000 16.735512 3.871367 -0.048703 56.113371 5.644291 -2.406849 10.896046 28.562549 3.370648 0.000000 0.000000 0.000000 
-0.000926 0.951420 -0.000650 -1.471291 1.500899 6.057758 3.864917 -0.344020 -4.040740 4.114060 -0.498335 0.925385 3.473304 10.971838 14.810540 0.000000 0.000000 0.000000 -2.972508 0.596739 -6.616690 -1.014747 0.149673 0.871672 3.553793 2.403422 11.557008 0.000000 0.000000 0.000000 1.329088 0.037737 -1.482090 -0.184531 0.203256 -4.010848 0.804533 -2.478860 1.383236 0.844595 0.274543 -13.165937 0.000000 0.000000 0.000000 -19.394762 -3.269608 0.274994 -52.630825 -7.272666 -2.867922 -13.326201 -25.431023 4.046176 0.000000 0.000000 0.000000 16.145047 3.617624 -0.159838 55.842103 5.212566 -2.601968 14.023781 31.663688 4.593610 0.000000 0.000000 0.000000 
-0.000880 0.951648 -0.001125 -1.436078 1.276179 6.144980 3.638751 -0.364811 -4.383588 4.376818 -0.562988 1.383537 3.600088 11.158091 14.925937 0.000000 0.000000 0.000000 -2.993564 0.628381 -7.031996 -1.031898 0.165738 1.172614 3.592826 2.308529 11.849462 0.000000 0.000000 0.000000 1.460720 0.044927 -1.659781 -0.403768 0.281607 -3.514964 1.205170 -2.815056 1.197929 0.290695 0.581048 -13.288053 0.000000 0.000000 0.000000 -19.789647 -3.027601 0.264739 -52.237367 -7.278203 -2.864409 -13.731933 -26.415211 4.342068 0.000000 0.000000 0.000000 15.509837 3.882646 -0.094269 55.210975 5.230182 -2.540045 17.100211 34.635536 5.922780 0.000000 0.000000 0.000000 
-0.000781 0.951781 -0.001789 -1.166307 1.365096 6.143889 3.353074 -0.373470 -4.477483 4.362011 -0.565085 1.441099 3.521316 11.066756 15.000611 0.000000 0.000000 0.000000 -3.116546 0.639547 -7.246570 -1.057616 0.195437 1.727491 3.074825 1.567827 11.254936 0.000000 0.000000 0.000000 1.474351 0.038530 -1.546717 -0.319182 0.240572 -3.320102 0.904391 -3.009970 1.031883 -0.017362 0.757209 -13.116816 0.000000 0.000000 0.000000 -19.717485 -2.581405 0.034474 -51.527320 -6.657418 -3.079734 -15.976389 -28.814357 5.362393 0.000000 0.000000 0.000000 15.143833 3.454379 -0.291418 54.692925 4.384848 -2.880278 21.394202 37.523537 7.864452 0.000000 0.000000 0.000000 
-0.000603 0.952232 -0.002703 -1.066719 1.557177 6.067283 3.205215 -0.389275 -4.703457 4.441265 -0.601012 1.805769 3.403203 10.931943 15.077291 0.000000 0.000000 0.000000 -3.386831 0.644840 -7.468821 -0.904562 0.185407 1.908209 3.247257 1.601311 11.993081 0.000000 0.000000 0.000000 1.659181 0.029364 -1.429122 -0.363659 0.253821 -3.035191 0.736534 -3.088957 0.938931 -0.687685 1.178891 -13.136315 0.000000 0.000000 0.000000 -19.454665 -2.309630 -0.120836 -51.126200 -6.251955 -3.213871 -18.964920 -31.214232 6.705856 0.000000 0.000000 0.000000 14.697444 2.734196 -0.587321 55.042890 3.642681 -3.242593 24.108880 39.933835 9.403955 0.000000 0.000000 0.000000 
-0.000293 0.952545 -0.003902 -0.925920 1.899838 6.039429 3.247211 -0.410540 -5.023759 4.129112 -0.587154 2.163324 3.210652 10.683417 15.054491 0.000000 0.000000 0.000000 -3.722722 0.672348 -8.101919 -0.630800 0.172525 2.387833 3.253859 1.065855 13.349644 0.000000 0.000000 0.000000 1.642033 0.007238 -1.023023 -0.258045 0.216853 -3.257579 0.762234 -3.208055 0.906072 -1.351756 1.599597 -13.272498 0.000000 0.000000 0.000000 -18.812422 -1.633562 -0.468833 -50.936715 -5.945529 -3.314120 -23.236623 -33.739701 8.653979 0.000000 0.000000 0.000000 14.661012 2.348844 -0.759742 54.862016 3.112331 -3.470592 25.667273 41.358683 10.376502 0.000000 0.000000 0.000000 
0.000070 0.953084 -0.005298 -0.760462 2.520191 5.970437 3.157910 -0.427440 -5.231929 4.050004 -0.583520 2.288245 2.850285 10.228773 15.073206 0.000000 0.000000 0.000000 -3.994379 0.673879 -8.407560 -0.494465 0.154013 2.374688 3.163061 0.295196 15.034945 0.000000 0.000000 0.000000 1.490268 -0.005803 -0.717584 -0.124613 0.176893 -3.661279 0.741428 -3.387852 1.281278 -2.431733 2.311104 -14.333769 0.000000 0.000000 0.000000 -18.415376 -1.197657 -0.708612 -50.262383 -6.010225 -3.272015 -28.908675 -36.826290 11.531820 0.000000 0.000000 0.000000 14.851154 1.963073 -0.923777 54.552529 2.983548 -3.546441 25.313110 42.221483 10.538146 0.000000 0.000000 0.000000 
0.000525 0.953138 -0.006611 -0.779910 2.928469 5.909944 3.362333 -0.439071 -5.436467 3.758694 -0.558591 2.474356 2.648432 9.949827 14.939244 0.000000 0.000000 0.000000 -4.216930 0.672981 -8.640887 -0.061010 0.101912 2.501216 3.000406 -0.280450 15.926708 0.000000 0.000000 0.000000 1.343618 -0.013897 -0.493778 -0.001142 0.134734 -3.868478 0.805970 -3.182127 1.599679 -2.590840 2.464653 -15.070113 0.000000 0.000000 0.000000 -17.777983 -0.622129 -1.055184 -49.617418 -6.452034 -3.065113 -35.345555 -40.878184 15.514670 0.000000 0.000000 0.000000 14.828140 1.894927 -0.862873 54.519539 3.699619 -3.262740 22.062258 41.593244 9.222848 0.000000 0.000000 0.000000 
0.000907 0.953736 -0.007642 -0.739533 3.405591 5.843826 3.425223 -0.441103 -5.449929 3.618367 -0.529785 2.339842 2.356029 9.588626 15.006359 0.000000 0.000000 0.000000 -4.307835 0.656648 -8.540310 0.098821 0.072388 2.291462 2.724529 -0.932314 16.578060 0.000000 0.000000 0.000000 1.249745 -0.015018 -0.426375 -0.020944 0.160634 -4.215494 0.949158 -3.146743 1.950697 -3.158029 2.846551 -15.867882 0.000000 0.000000 0.000000 -17.389895 -0.574668 -1.098123 -48.029874 -7.988825 -2.406513 -42.838024 -46.145988 21.314526 0.000000 0.000000 0.000000 14.701286 1.979336 -0.746241 54.210986 4.593746 -2.885015 17.892677 40.387709 7.472010 0.000000 0.000000 0.000000 
0.001215 0.954213 -0.008295 -0.828916 3.938554 5.795242 3.647998 -0.448194 -5.570537 3.466990 -0.511195 2.374937 2.066158 9.217767 14.984372 0.000000 0.000000 0.000000 -4.142707 0.653836 -8.468946 -0.035963 0.096776 2.501023 2.556069 -1.068216 16.392096 0.000000 0.000000 0.000000 1.074999 0.001641 -0.680627 0.159931 0.075396 -3.856485 0.952532 -2.775341 1.553131 -3.157785 2.899242 -15.638344 0.000000 0.000000 0.000000 -16.166628 -1.072957 -0.895066 -46.610815 -10.415307 -1.369856 -49.441659 -52.540029 28.225618 0.000000 0.000000 0.000000 14.751094 2.319671 -0.463039 53.586219 5.355709 -2.488591 13.211578 38.794609 5.624707 0.000000 0.000000 0.000000 
